<svg width="140" height="140" viewBox="0 0 140 140" fill="none" xmlns="http://www.w3.org/2000/svg">
<circle cx="70" cy="70" r="70" fill="#B48F57"/>
<path d="M95.7931 58.6364C95.7931 56.7424 95.1897 55.1326 93.9828 53.8068C92.7759 52.4811 91.3103 51.8182 89.5862 51.8182H87.5172V65.4545H89.5862C91.3103 65.4545 92.7759 64.7917 93.9828 63.4659C95.1897 62.1402 95.7931 60.5303 95.7931 58.6364ZM42 85.9091H99.931C99.931 88.4186 99.1228 90.5611 97.5065 92.3366C95.8901 94.1122 93.9397 95 91.6552 95H50.2759C47.9914 95 46.0409 94.1122 44.4246 92.3366C42.8082 90.5611 42 88.4186 42 85.9091ZM102 58.6364C102 62.4006 100.788 65.6143 98.3631 68.2777C95.9386 70.9411 93.0129 72.2727 89.5862 72.2727H87.5172V73.4091C87.5172 75.5871 86.806 77.4574 85.3836 79.0199C83.9612 80.5824 82.2586 81.3636 80.2759 81.3636H57.5172C55.5345 81.3636 53.8319 80.5824 52.4095 79.0199C50.9871 77.4574 50.2759 75.5871 50.2759 73.4091V47.2727C50.2759 46.6572 50.4806 46.1245 50.8901 45.6747C51.2996 45.2249 51.7845 45 52.3448 45H89.5862C93.0129 45 95.9386 46.3317 98.3631 48.995C100.788 51.6584 102 54.8722 102 58.6364Z" fill="white"/>
</svg>
