<svg width="24" height="27" viewBox="0 0 24 27" fill="none" xmlns="http://www.w3.org/2000/svg">
<path d="M11.9531 0.938477C9.58903 0.938477 7.27801 1.67825 5.31233 3.06424C3.34665 4.45023 1.81459 6.4202 0.909883 8.72502C0.00517893 11.0298 -0.231533 13.566 0.229681 16.0128C0.690895 18.4596 1.82932 20.7071 3.50099 22.4711C5.17267 24.2352 7.30251 25.4365 9.62119 25.9232C11.9399 26.4099 14.3432 26.1601 16.5274 25.2054C18.7115 24.2507 20.5784 22.634 21.8918 20.5597C23.2052 18.4854 23.9063 16.0467 23.9063 13.552C23.9025 10.2079 22.642 7.00188 20.4012 4.63723C18.1603 2.27259 15.1222 0.942404 11.9531 0.938477ZM11.9531 24.6816C9.86716 24.6816 7.82802 24.0289 6.0936 22.8059C4.35918 21.583 3.00736 19.8448 2.20909 17.8111C1.41082 15.7775 1.20196 13.5397 1.60891 11.3807C2.01586 9.22181 3.02036 7.2387 4.49536 5.6822C5.97037 4.1257 7.84964 3.06571 9.89554 2.63627C11.9414 2.20684 14.0621 2.42724 15.9892 3.26961C17.9164 4.11198 19.5636 5.53849 20.7225 7.36874C21.8814 9.199 22.5 11.3508 22.5 13.552C22.4969 16.5028 21.3847 19.3317 19.4075 21.4182C17.4302 23.5047 14.7494 24.6783 11.9531 24.6816ZM7.96875 13.552C7.96875 14.4345 8.23187 15.2945 8.72084 16.0104C9.2098 16.7263 9.89982 17.2617 10.6932 17.5408C11.4865 17.8198 12.3429 17.8284 13.1411 17.5653C13.9394 17.3022 14.6389 16.7807 15.1406 16.0747C15.2527 15.9173 15.4194 15.8133 15.6041 15.7856C15.7888 15.7579 15.9764 15.8087 16.1256 15.9269C16.2748 16.0452 16.3733 16.2211 16.3996 16.416C16.4259 16.6109 16.3777 16.8089 16.2656 16.9663C15.5866 17.9211 14.6402 18.6264 13.5603 18.9821C12.4804 19.3378 11.3218 19.326 10.2486 18.9483C9.17548 18.5707 8.2421 17.8463 7.58069 16.8778C6.91929 15.9093 6.56338 14.7458 6.56338 13.552C6.56338 12.3582 6.91929 11.1947 7.58069 10.2262C8.2421 9.25774 9.17548 8.53337 10.2486 8.15571C11.3218 7.77805 12.4804 7.76624 13.5603 8.12196C14.6402 8.47767 15.5866 9.18288 16.2656 10.1377C16.3777 10.2951 16.4259 10.4931 16.3996 10.688C16.3733 10.8829 16.2748 11.0588 16.1256 11.1771C15.9764 11.2953 15.7888 11.3462 15.6041 11.3185C15.4194 11.2907 15.2527 11.1867 15.1406 11.0293C14.6389 10.3233 13.9394 9.80187 13.1411 9.53875C12.3429 9.27563 11.4865 9.28421 10.6932 9.56326C9.89982 9.84232 9.2098 10.3777 8.72084 11.0936C8.23187 11.8095 7.96875 12.6696 7.96875 13.552Z" fill="white" fill-opacity="0.8"/>
</svg>
