<svg width="510" height="135" viewBox="0 0 510 135" fill="none" xmlns="http://www.w3.org/2000/svg">
<rect width="510" height="135" fill="#58483B"/>
<path d="M112.84 68.44H117.4L129.4 85H124.36L112.84 68.44ZM106.84 51.4H110.92V85H106.84V51.4ZM109.096 55V51.4H115.96C118.136 51.4 120.072 51.816 121.768 52.648C123.496 53.448 124.856 54.6 125.848 56.104C126.872 57.608 127.384 59.4 127.384 61.48C127.384 63.528 126.872 65.32 125.848 66.856C124.856 68.36 123.496 69.528 121.768 70.36C120.072 71.16 118.136 71.56 115.96 71.56H109.096V67.96H115.96C117.4 67.96 118.664 67.704 119.752 67.192C120.872 66.68 121.736 65.944 122.344 64.984C122.984 64.024 123.304 62.856 123.304 61.48C123.304 60.104 122.984 58.936 122.344 57.976C121.736 57.016 120.872 56.28 119.752 55.768C118.664 55.256 117.4 55 115.96 55H109.096ZM135.955 85V81.16H152.899V85H135.955ZM135.955 55.24V51.4H152.899V55.24H135.955ZM135.955 68.68V64.84H151.939V68.68H135.955ZM133.699 51.4H137.779V85H133.699V51.4ZM161.338 74.824C162.106 76.168 162.906 77.352 163.738 78.376C164.602 79.4 165.562 80.2 166.618 80.776C167.674 81.352 168.874 81.64 170.218 81.64C172.01 81.64 173.45 81.144 174.538 80.152C175.626 79.16 176.17 77.896 176.17 76.36C176.17 74.856 175.818 73.656 175.114 72.76C174.41 71.864 173.482 71.144 172.33 70.6C171.21 70.024 170.01 69.512 168.73 69.064C167.898 68.776 166.97 68.408 165.946 67.96C164.922 67.48 163.946 66.888 163.018 66.184C162.09 65.448 161.322 64.552 160.714 63.496C160.138 62.44 159.85 61.144 159.85 59.608C159.85 57.944 160.266 56.456 161.098 55.144C161.93 53.832 163.082 52.808 164.554 52.072C166.026 51.304 167.706 50.92 169.594 50.92C171.418 50.92 173.002 51.272 174.346 51.976C175.722 52.648 176.89 53.528 177.85 54.616C178.81 55.672 179.562 56.792 180.106 57.976L176.602 59.992C176.186 59.16 175.658 58.344 175.018 57.544C174.378 56.744 173.594 56.088 172.666 55.576C171.77 55.064 170.666 54.808 169.354 54.808C167.53 54.808 166.202 55.256 165.37 56.152C164.538 57.016 164.122 57.992 164.122 59.08C164.122 60.008 164.362 60.872 164.842 61.672C165.322 62.44 166.122 63.176 167.242 63.88C168.394 64.552 169.946 65.224 171.898 65.896C172.794 66.216 173.738 66.632 174.73 67.144C175.722 67.656 176.634 68.312 177.466 69.112C178.33 69.88 179.034 70.824 179.578 71.944C180.122 73.032 180.394 74.344 180.394 75.88C180.394 77.352 180.106 78.68 179.53 79.864C178.986 81.048 178.218 82.056 177.226 82.888C176.266 83.72 175.162 84.36 173.914 84.808C172.698 85.256 171.418 85.48 170.074 85.48C168.25 85.48 166.554 85.096 164.986 84.328C163.45 83.528 162.09 82.488 160.906 81.208C159.754 79.896 158.81 78.504 158.074 77.032L161.338 74.824ZM183.027 55.24V51.4H204.387V55.24H195.747V85H191.667V55.24H183.027ZM207.134 74.92L208.574 71.08H223.454L224.894 74.92H207.134ZM215.918 58.984L210.254 72.328L209.87 73.192L204.878 85H200.318L215.918 49.72L231.518 85H226.958L222.062 73.48L221.678 72.52L215.918 58.984ZM235.366 51.4H239.446V73.96C239.446 76.264 240.07 78.12 241.318 79.528C242.566 80.936 244.39 81.64 246.79 81.64C249.19 81.64 251.014 80.936 252.262 79.528C253.51 78.12 254.134 76.264 254.134 73.96V51.4H258.214V73.96C258.214 75.624 257.942 77.16 257.398 78.568C256.886 79.976 256.118 81.192 255.094 82.216C254.102 83.24 252.902 84.04 251.494 84.616C250.086 85.192 248.518 85.48 246.79 85.48C245.062 85.48 243.494 85.192 242.086 84.616C240.678 84.04 239.462 83.24 238.438 82.216C237.446 81.192 236.678 79.976 236.134 78.568C235.622 77.16 235.366 75.624 235.366 73.96V51.4ZM271.653 68.44H276.213L288.213 85H283.173L271.653 68.44ZM265.653 51.4H269.733V85H265.653V51.4ZM267.909 55V51.4H274.773C276.949 51.4 278.885 51.816 280.581 52.648C282.309 53.448 283.669 54.6 284.661 56.104C285.685 57.608 286.197 59.4 286.197 61.48C286.197 63.528 285.685 65.32 284.661 66.856C283.669 68.36 282.309 69.528 280.581 70.36C278.885 71.16 276.949 71.56 274.773 71.56H267.909V67.96H274.773C276.213 67.96 277.477 67.704 278.565 67.192C279.685 66.68 280.549 65.944 281.157 64.984C281.797 64.024 282.117 62.856 282.117 61.48C282.117 60.104 281.797 58.936 281.157 57.976C280.549 57.016 279.685 56.28 278.565 55.768C277.477 55.256 276.213 55 274.773 55H267.909ZM295.728 74.92L297.168 71.08H312.048L313.488 74.92H295.728ZM304.512 58.984L298.848 72.328L298.464 73.192L293.472 85H288.912L304.512 49.72L320.112 85H315.552L310.656 73.48L310.272 72.52L304.512 58.984ZM349.639 51.4H353.719V86.68L328.279 59.992V85H324.199V49.72L349.639 76.408V51.4ZM358.058 55.24V51.4H379.418V55.24H370.778V85H366.698V55.24H358.058ZM385.987 85V81.16H402.931V85H385.987ZM385.987 55.24V51.4H402.931V55.24H385.987ZM385.987 68.68V64.84H401.971V68.68H385.987ZM383.731 51.4H387.811V85H383.731V51.4Z" fill="white"/>
</svg>
