<svg width="140" height="140" viewBox="0 0 140 140" fill="none" xmlns="http://www.w3.org/2000/svg">
<circle cx="70" cy="70" r="70" fill="#B48F57"/>
<path d="M60.9122 45.0418C63.8502 44.5699 66.9624 48.1502 67.8588 53.0905C68.7551 58.003 67.1367 62.3881 64.1987 62.8877C61.2857 63.3873 58.1485 59.807 57.2273 54.8667C56.306 49.9542 57.9742 45.5691 60.9122 45.0418ZM78.7143 45.0418C81.6772 45.5691 83.3205 49.9542 82.4491 54.8667C81.5029 59.807 78.3907 63.3873 75.4527 62.8877C72.4898 62.3881 70.8714 58.003 71.7927 53.0905C72.689 48.1502 75.8013 44.5699 78.7143 45.0418ZM47.5917 57.8087C50.4301 56.4487 54.2893 58.9189 56.306 63.2208C58.1983 67.6059 57.5509 72.2131 54.7375 73.5731C51.924 74.933 48.0897 72.4907 46.1227 68.1333C44.1558 63.7758 44.8529 59.1409 47.5917 57.8087ZM92.4083 57.8087C95.1471 59.1409 95.8442 63.7758 93.8773 68.1333C91.9103 72.4907 88.076 74.933 85.2625 73.5731C82.4491 72.2131 81.8017 67.6059 83.694 63.2208C85.7107 58.9189 89.5699 56.4487 92.4083 57.8087ZM88.2503 87.7277C88.3499 90.3366 86.5572 93.2231 84.416 94.3055C79.9592 96.5813 74.6808 91.8631 69.7261 91.8631C64.7714 91.8631 59.4432 96.7756 55.0611 94.3055C52.5713 92.9455 50.8534 89.3375 51.177 86.34C51.6252 82.2046 56.082 79.9843 58.7212 76.9591C62.2318 73.0457 64.7216 65.6909 69.7261 65.6909C74.7057 65.6909 77.3449 72.9347 80.7062 76.9591C83.4699 80.3451 88.076 83.2038 88.2503 87.7277Z" fill="white"/>
</svg>
