<svg width="140" height="140" viewBox="0 0 140 140" fill="none" xmlns="http://www.w3.org/2000/svg">
<circle cx="70" cy="70" r="70" fill="#B48F57"/>
<path d="M45 95V89.4444C46.5833 89.4444 47.7708 88.9815 48.5625 88.0556C49.3542 87.1296 50.9167 86.6667 53.25 86.6667C55.5833 86.6667 57.1875 87.1296 58.0625 88.0556C58.9375 88.9815 60.125 89.4444 61.625 89.4444C63.125 89.4444 64.3125 88.9815 65.1875 88.0556C66.0625 87.1296 67.6667 86.6667 70 86.6667C72.3333 86.6667 73.9375 87.1296 74.8125 88.0556C75.6875 88.9815 76.875 89.4444 78.375 89.4444C79.875 89.4444 81.0625 88.9815 81.9375 88.0556C82.8125 87.1296 84.4167 86.6667 86.75 86.6667C89.0833 86.6667 90.6458 87.1296 91.4375 88.0556C92.2292 88.9815 93.4167 89.4444 95 89.4444V95C92.5417 95 90.9275 94.537 90.1575 93.6111C89.3875 92.6852 88.2517 92.2222 86.75 92.2222C85.2483 92.2222 84.0608 92.6852 83.1875 93.6111C82.3142 94.537 80.71 95 78.375 95C76.04 95 74.4358 94.537 73.5625 93.6111C72.6892 92.6852 71.5017 92.2222 70 92.2222C68.4983 92.2222 67.3108 92.6852 66.4375 93.6111C65.5642 94.537 63.96 95 61.625 95C59.29 95 57.6858 94.537 56.8125 93.6111C55.9392 92.6852 54.7517 92.2222 53.25 92.2222C51.7483 92.2222 50.6125 92.6852 49.8425 93.6111C49.0725 94.537 47.4583 95 45 95ZM45 82.5V76.9444C46.5833 76.9444 47.7708 76.4815 48.5625 75.5556C49.3542 74.6296 50.9167 74.1667 53.25 74.1667C55.5833 74.1667 57.1983 74.6296 58.095 75.5556C58.9917 76.4815 60.1683 76.9444 61.625 76.9444C63.125 76.9444 64.3125 76.4815 65.1875 75.5556C66.0625 74.6296 67.6667 74.1667 70 74.1667C72.3333 74.1667 73.9375 74.6296 74.8125 75.5556C75.6875 76.4815 76.875 76.9444 78.375 76.9444C79.875 76.9444 81.0625 76.4815 81.9375 75.5556C82.8125 74.6296 84.4167 74.1667 86.75 74.1667C89.0833 74.1667 90.6458 74.6296 91.4375 75.5556C92.2292 76.4815 93.4167 76.9444 95 76.9444V82.5C92.5417 82.5 90.9275 82.037 90.1575 81.1111C89.3875 80.1852 88.2517 79.7222 86.75 79.7222C85.2483 79.7222 84.0917 80.1852 83.28 81.1111C82.4683 82.037 80.8333 82.5 78.375 82.5C76 82.5 74.3858 82.037 73.5325 81.1111C72.6792 80.1852 71.5017 79.7222 70 79.7222C68.4167 79.7222 67.24 80.1852 66.47 81.1111C65.7 82.037 64.085 82.5 61.625 82.5C59.165 82.5 57.5292 82.037 56.7175 81.1111C55.9058 80.1852 54.75 79.7222 53.25 79.7222C51.75 79.7222 50.615 80.1852 49.845 81.1111C49.075 82.037 47.46 82.5 45 82.5ZM57.25 68.3333L65.5625 59.0972L63.0625 56.3194C61.6875 54.7917 60.2292 53.6806 58.6875 52.9861C57.1458 52.2917 55.25 51.9444 53 51.9444V45C56.125 45 58.7083 45.3824 60.75 46.1472C62.7917 46.912 64.7917 48.3815 66.75 50.5556L82.75 68.3333C82.0417 68.8426 81.3542 69.2481 80.6875 69.55C80.0208 69.8519 79.25 70.0019 78.375 70C76.875 70 75.6875 69.537 74.8125 68.6111C73.9375 67.6852 72.3333 67.2222 70 67.2222C67.6667 67.2222 66.0625 67.6852 65.1875 68.6111C64.3125 69.537 63.125 70 61.625 70C60.75 70 59.9792 69.85 59.3125 69.55C58.6458 69.25 57.9583 68.8444 57.25 68.3333ZM81.75 45C83.5 45 84.9792 45.6833 86.1875 47.05C87.3958 48.4167 88 50.0482 88 51.9444C88 53.8889 87.3958 55.5324 86.1875 56.875C84.9792 58.2176 83.5 58.8889 81.75 58.8889C80 58.8889 78.5208 58.2176 77.3125 56.875C76.1042 55.5324 75.5 53.8889 75.5 51.9444C75.5 50.0463 76.1042 48.4139 77.3125 47.0472C78.5208 45.6806 80 44.9982 81.75 45Z" fill="white"/>
</svg>
