<svg width="140" height="140" viewBox="0 0 140 140" fill="none" xmlns="http://www.w3.org/2000/svg">
<circle cx="70" cy="70" r="70" fill="#B48F57"/>
<path d="M69.9996 95C66.0732 94.5 62.5645 93.5 59.4735 92C56.3825 90.5 53.7618 88.5417 51.6114 86.125C49.4611 83.7083 47.8212 80.9067 46.6917 77.72C45.5622 74.5333 44.9983 71.0017 45 67.125C49.5948 67.5833 53.4794 68.4167 56.654 69.625C59.8285 70.8333 62.4083 72.5417 64.3932 74.75C66.3781 76.9583 67.8084 79.7192 68.6839 83.0325C69.5594 86.3458 69.998 90.335 69.9996 95ZM69.9996 73.9375C69.0389 72.4792 67.734 71.0417 66.0849 69.625C64.4358 68.2083 62.5244 66.9167 60.3507 65.75C60.6013 64 61.019 62.1875 61.6038 60.3125C62.1886 58.4375 62.8987 56.5942 63.7341 54.7825C64.5695 52.9708 65.5202 51.2308 66.5862 49.5625C67.6521 47.8942 68.79 46.3733 69.9996 45C71.211 46.375 72.3496 47.8958 73.4156 49.5625C74.4816 51.2292 75.4315 52.9692 76.2652 54.7825C77.0989 56.5958 77.8091 58.4392 78.3955 60.3125C78.982 62.1858 79.3997 63.9983 79.6486 65.75C77.4766 66.875 75.566 68.1458 73.9169 69.5625C72.2678 70.9792 70.962 72.4375 69.9996 73.9375ZM75.0121 94C74.9286 91.0833 74.7097 88.385 74.3555 85.905C74.0013 83.425 73.4474 81.0817 72.6938 78.875C74.657 75.5 77.3621 72.75 80.809 70.625C84.2559 68.5 88.986 67.3333 94.9993 67.125C95.041 73.7083 93.2758 79.3858 89.7036 84.1575C86.1314 88.9292 81.2342 92.21 75.0121 94Z" fill="white"/>
</svg>
