<svg width="456" height="27" viewBox="0 0 456 27" fill="none" xmlns="http://www.w3.org/2000/svg">
<path d="M169.112 26.6965L171.533 16.8479L163.414 10.2237L174.139 9.34746L178.31 0.0595703L182.481 9.34746L193.207 10.2237L185.088 16.8479L187.509 26.6965L178.31 21.4743L169.112 26.6965Z" fill="#FFD233"/>
<path d="M212.808 26.6965L215.229 16.8479L207.11 10.2237L217.836 9.34746L222.007 0.0595703L226.178 9.34746L236.903 10.2237L228.784 16.8479L231.205 26.6965L222.007 21.4743L212.808 26.6965Z" fill="#FFD233"/>
<path d="M256.504 26.6965L258.925 16.8479L250.806 10.2237L261.532 9.34746L265.703 0.0595703L269.874 9.34746L280.599 10.2237L272.481 16.8479L274.901 26.6965L265.703 21.4743L256.504 26.6965Z" fill="#FFD233"/>
<path d="M300.2 26.6965L302.621 16.8479L294.502 10.2237L305.228 9.34746L309.399 0.0595703L313.57 9.34746L324.295 10.2237L316.177 16.8479L318.597 26.6965L309.399 21.4743L300.2 26.6965Z" fill="#FFD233"/>
<path d="M125.416 26.6965L127.836 16.8479L119.718 10.2237L130.443 9.34746L134.614 0.0595703L138.785 9.34746L149.511 10.2237L141.392 16.8479L143.813 26.6965L134.614 21.4743L125.416 26.6965Z" fill="#FFD233"/>
<line x1="353.095" y1="14.5767" x2="455.384" y2="14.5767" stroke="white"/>
<line x1="102.835" y1="15.5767" x2="0.546753" y2="15.5767" stroke="white"/>
</svg>
