<svg width="140" height="140" viewBox="0 0 140 140" fill="none" xmlns="http://www.w3.org/2000/svg">
<circle cx="70" cy="70" r="70" fill="#B48F57"/>
<path d="M55.875 78.3824L50.625 72.0588C53.2083 69.0196 56.1667 66.6912 59.5 65.0735C62.8333 63.4559 66.3333 62.6471 70 62.6471C73.6667 62.6471 77.1775 63.4686 80.5325 65.1118C83.8875 66.7549 86.835 69.1196 89.375 72.2059L84.125 78.3824C82.25 76.1765 80.0933 74.4735 77.655 73.2735C75.2167 72.0735 72.665 71.4726 70 71.4706C67.3333 71.4706 64.7817 72.0716 62.345 73.2735C59.9083 74.4755 57.7517 76.1784 55.875 78.3824ZM45.25 65.8824L40 59.7059C43.9583 54.951 48.5317 51.3108 53.72 48.7853C58.9083 46.2598 64.335 44.998 70 45C75.6667 45 81.0942 46.2627 86.2825 48.7882C91.4708 51.3137 96.0433 54.9529 100 59.7059L94.75 65.8824C91.4583 62.0098 87.6767 59.0324 83.405 56.95C79.1333 54.8676 74.665 53.8255 70 53.8235C65.3333 53.8235 60.8642 54.8657 56.5925 56.95C52.3208 59.0343 48.54 62.0118 45.25 65.8824ZM70 95L61.1875 84.5588C62.3542 83.1863 63.6983 82.1324 65.22 81.3971C66.7417 80.6618 68.335 80.2941 70 80.2941C71.6667 80.2941 73.2608 80.6618 74.7825 81.3971C76.3042 82.1324 77.6475 83.1863 78.8125 84.5588L70 95Z" fill="white"/>
</svg>
